<svg xmlns="http://www.w3.org/2000/svg" viewBox="0 0 1200 800" width="100%" height="100%" style="background-color: #020205; font-family: system-ui, sans-serif;">
  <defs>
    <!-- Background Space Gradients -->
    <radialGradient id="nebula-purple" cx="20%" cy="30%" r="80%">
      <stop offset="0%" stop-color="#4c1d95" stop-opacity="0.6"/>
      <stop offset="35%" stop-color="#2e1065" stop-opacity="0.3"/>
      <stop offset="70%" stop-color="#0f052d" stop-opacity="0.1"/>
      <stop offset="100%" stop-color="#020205" stop-opacity="0"/>
    </radialGradient>
    <radialGradient id="nebula-blue" cx="85%" cy="20%" r="70%">
      <stop offset="0%" stop-color="#1e1b4b" stop-opacity="0.5"/>
      <stop offset="50%" stop-color="#0f172a" stop-opacity="0.2"/>
      <stop offset="100%" stop-color="#020205" stop-opacity="0"/>
    </radialGradient>
    <radialGradient id="nebula-pink" cx="45%" cy="65%" r="60%">
      <stop offset="0%" stop-color="#831843" stop-opacity="0.4"/>
      <stop offset="40%" stop-color="#500724" stop-opacity="0.15"/>
      <stop offset="100%" stop-color="#020205" stop-opacity="0"/>
    </radialGradient>
    <radialGradient id="nebula-orange" cx="85%" cy="65%" r="50%">
      <stop offset="0%" stop-color="#7c2d12" stop-opacity="0.4"/>
      <stop offset="60%" stop-color="#3b1509" stop-opacity="0.1"/>
      <stop offset="100%" stop-color="#020205" stop-opacity="0"/>
    </radialGradient>

    <!-- Star Glow Filters -->
    <filter id="glow-light" x="-30%" y="-30%" width="160%" height="160%">
      <feGaussianBlur stdDeviation="3" result="blur" />
      <feComposite in="SourceGraphic" in2="blur" operator="over" />
    </filter>
    <filter id="glow-heavy" x="-100%" y="-100%" width="300%" height="300%">
      <feGaussianBlur stdDeviation="15" result="blur1" />
      <feGaussianBlur stdDeviation="5" result="blur2" />
      <feMerge>
        <feMergeNode in="blur1" />
        <feMergeNode in="blur2" />
        <feMergeNode in="SourceGraphic" />
      </feMerge>
    </filter>

    <!-- Metallic Hull Shading Gradients -->
    <linearGradient id="hull-dark" x1="0%" y1="0%" x2="100%" y2="100%">
      <stop offset="0%" stop-color="#1e293b"/>
      <stop offset="40%" stop-color="#0f172a"/>
      <stop offset="100%" stop-color="#020617"/>
    </linearGradient>
    <linearGradient id="hull-shadow" x1="0%" y1="0%" x2="100%" y2="0%">
      <stop offset="0%" stop-color="#0f172a"/>
      <stop offset="50%" stop-color="#090d16"/>
      <stop offset="100%" stop-color="#02040a"/>
    </linearGradient>
    <linearGradient id="hull-mid" x1="0%" y1="0%" x2="100%" y2="100%">
      <stop offset="0%" stop-color="#334155"/>
      <stop offset="45%" stop-color="#1e293b"/>
      <stop offset="100%" stop-color="#0f172a"/>
    </linearGradient>
    <linearGradient id="hull-light" x1="0%" y1="0%" x2="0%" y2="100%">
      <stop offset="0%" stop-color="#475569"/>
      <stop offset="50%" stop-color="#334155"/>
      <stop offset="100%" stop-color="#1e293b"/>
    </linearGradient>

    <!-- Glowing Effects Gradients -->
    <radialGradient id="thruster-core" cx="50%" cy="50%" r="50%">
      <stop offset="0%" stop-color="#ffffff"/>
      <stop offset="30%" stop-color="#fed7aa"/>
      <stop offset="65%" stop-color="#f97316"/>
      <stop offset="85%" stop-color="#ea580c" stop-opacity="0.5"/>
      <stop offset="100%" stop-color="#7c2d12" stop-opacity="0"/>
    </radialGradient>
    <linearGradient id="thruster-plume" x1="0%" y1="50%" x2="100%" y2="50%">
      <stop offset="0%" stop-color="#ffffff"/>
      <stop offset="15%" stop-color="#ffedd5"/>
      <stop offset="45%" stop-color="#f97316"/>
      <stop offset="75%" stop-color="#ea580c" stop-opacity="0.3"/>
      <stop offset="100%" stop-color="#7c2d12" stop-opacity="0"/>
    </linearGradient>

    <!-- Front Laser Fire Gradients -->
    <radialGradient id="laser-glow" cx="50%" cy="50%" r="50%">
      <stop offset="0%" stop-color="#ffffff"/>
      <stop offset="25%" stop-color="#fee2e2"/>
      <stop offset="60%" stop-color="#ef4444"/>
      <stop offset="85%" stop-color="#b91c1c" stop-opacity="0.6"/>
      <stop offset="100%" stop-color="#7f1d1d" stop-opacity="0"/>
    </radialGradient>
    <linearGradient id="laser-beam" x1="100%" y1="30%" x2="0%" y2="70%">
      <stop offset="0%" stop-color="#ffffff"/>
      <stop offset="20%" stop-color="#fca5a5"/>
      <stop offset="50%" stop-color="#ef4444"/>
      <stop offset="80%" stop-color="#991b1b" stop-opacity="0.3"/>
      <stop offset="100%" stop-color="#7f1d1d" stop-opacity="0"/>
    </linearGradient>
  </defs>

  <!-- BACKGROUND: Stars, Nebulae, and Cosmic Dust -->
  <rect width="1200" height="800" fill="#020205" />
  <rect width="1200" height="800" fill="url(#nebula-purple)" />
  <rect width="1200" height="800" fill="url(#nebula-blue)" />
  <rect width="1200" height="800" fill="url(#nebula-pink)" />
  <rect width="1200" height="800" fill="url(#nebula-orange)" />

  <!-- Stars layer -->
  <g opacity="0.85">
    <circle cx="80" cy="120" r="1" fill="#fff" opacity="0.8"/>
    <circle cx="150" cy="60" r="1.5" fill="#fff" opacity="0.9"/>
    <circle cx="210" cy="180" r="1" fill="#fff" opacity="0.5"/>
    <circle cx="340" cy="90" r="2" fill="#fff" opacity="0.9" filter="url(#glow-light)"/>
    <circle cx="480" cy="150" r="1" fill="#fca5a5" opacity="0.7"/>
    <circle cx="560" cy="50" r="1.5" fill="#fff" opacity="0.8"/>
    <circle cx="720" cy="110" r="2.5" fill="#fff" opacity="0.9" filter="url(#glow-light)"/>
    <circle cx="890" cy="70" r="1" fill="#fff" opacity="0.4"/>
    <circle cx="980" cy="140" r="1.5" fill="#fed7aa" opacity="0.8"/>
    <circle cx="1090" cy="80" r="2" fill="#fff" opacity="0.7"/>

    <circle cx="60" cy="320" r="1.5" fill="#fff" opacity="0.6"/>
    <circle cx="110" cy="450" r="1" fill="#fff" opacity="0.4"/>
    <circle cx="280" cy="380" r="2" fill="#fff" opacity="0.8" filter="url(#glow-light)"/>
    <circle cx="950" cy="300" r="1" fill="#fff" opacity="0.5"/>
    <circle cx="1130" cy="350" r="2" fill="#fff" opacity="0.9"/>

    <circle cx="90" cy="650" r="1" fill="#fff" opacity="0.8"/>
    <circle cx="220" cy="720" r="1.5" fill="#fca5a5" opacity="0.6"/>
    <circle cx="390" cy="680" r="2" fill="#fff" opacity="0.8"/>
    <circle cx="520" cy="760" r="1" fill="#fff" opacity="0.5"/>
    <circle cx="680" cy="710" r="1.5" fill="#fff" opacity="0.7"/>
    <circle cx="810" cy="750" r="2" fill="#fed7aa" opacity="0.9" filter="url(#glow-light)"/>
    <circle cx="940" cy="680" r="1" fill="#fff" opacity="0.4"/>
    <circle cx="1050" cy="730" r="1.5" fill="#fff" opacity="0.8"/>
    <circle cx="1150" cy="640" r="1" fill="#fff" opacity="0.6"/>
  </g>

  <!-- Distant Spiral Galaxies -->
  <!-- Top Right Galaxy -->
  <g transform="translate(1040, 180) rotate(-25) scale(1.2)" opacity="0.65">
    <ellipse cx="0" cy="0" rx="40" ry="12" fill="#7c2d12" filter="blur(8px)"/>
    <ellipse cx="0" cy="0" rx="20" ry="6" fill="#fed7aa" filter="blur(3px)"/>
    <circle cx="0" cy="0" r="3" fill="#fff" filter="url(#glow-light)"/>
    <path d="M -50 5 Q -20 15 0 0 Q 20 -15 50 -5" fill="none" stroke="#fdba74" stroke-width="1.5" opacity="0.5" filter="blur(1px)"/>
  </g>
  <!-- Top Left Cluster -->
  <g transform="translate(180, 100)" opacity="0.5">
    <circle cx="0" cy="0" r="35" fill="#4c1d95" filter="blur(10px)"/>
    <circle cx="-10" cy="5" r="20" fill="#db2777" filter="blur(8px)"/>
    <circle cx="5" cy="-5" r="15" fill="#3b82f6" filter="blur(6px)"/>
  </g>

  <!-- Far Background Drifting Asteroids (Small & Dark) -->
  <g opacity="0.4">
    <polygon points="120,240 135,230 140,245 130,255 115,250" fill="#1e293b" />
    <polygon points="450,80 460,75 465,85 455,90" fill="#0f172a" />
    <polygon points="850,150 865,140 870,155 855,165" fill="#1e293b" />
    <polygon points="980,480 990,470 1000,485 985,495" fill="#111827" />
  </g>


  <!-- ========================================================= -->
  <!--               THE DISRUPTER HEAVY BATTLESHIP              -->
  <!-- ========================================================= -->
  <!-- The ship is angled from top-right to bottom-left -->
  <g transform="translate(0, 0)">
    
    <!-- ========================================================= -->
    <!-- 1. THRUSTER EXHAUST PLUMES (Back-Right Propulsion Flames) -->
    <!-- ========================================================= -->
    <g transform="translate(820, 380) rotate(15)">
      <!-- Main Central Upper Thruster Flame -->
      <path d="M 50 10 L 280 -40 Q 320 0 280 40 L 50 20 Z" fill="url(#thruster-plume)" filter="url(#glow-heavy)"/>
      <!-- Main Central Lower Thruster Flame -->
      <path d="M 35 60 L 250 20 Q 290 60 250 100 L 35 70 Z" fill="url(#thruster-plume)" filter="url(#glow-heavy)"/>
      
      <!-- Top Engine Flare -->
      <path d="M 60 -45 L 200 -75 L 60 -35 Z" fill="url(#thruster-plume)" opacity="0.8" filter="url(#glow-light)"/>
      <!-- Bottom Engine Flare -->
      <path d="M 40 115 L 180 135 L 40 105 Z" fill="url(#thruster-plume)" opacity="0.8" filter="url(#glow-light)"/>

      <!-- Inner white-hot thruster glow bulbs -->
      <ellipse cx="45" cy="15" rx="15" ry="22" fill="url(#thruster-core)"/>
      <ellipse cx="30" cy="65" rx="12" ry="18" fill="url(#thruster-core)"/>
      <ellipse cx="55" cy="-40" rx="8" ry="12" fill="url(#thruster-core)"/>
      <ellipse cx="35" cy="110" rx="8" ry="12" fill="url(#thruster-core)"/>
    </g>


    <!-- ========================================================= -->
    <!-- 2. BASE SHIP SILHOUETTE & SHADOW UNDER-LAYER -->
    <!-- ========================================================= -->
    <!-- Provides depth and crisp edges -->
    <path d="
      M 860 330 
      L 900 360 
      L 880 460 
      L 850 510 
      L 780 500 
      L 620 540 
      L 450 610 
      L 260 630 
      L 220 590 
      L 250 520 
      L 350 490 
      L 580 440 
      L 680 340 
      L 820 310 Z" 
      fill="#030712" 
      filter="drop-shadow(0 15px 30px rgba(0,0,0,0.95))"
    />


    <!-- ========================================================= -->
    <!-- 3. REAR ENGINE MOUNT & MECHANIZED CORE MODULES -->
    <!-- ========================================================= -->
    <!-- Heavy armored engine covers (upper and lower) -->
    <g stroke="#090d16" stroke-width="1.5">
      <!-- Upper Thruster Cap -->
      <path d="M 810 310 L 870 335 L 860 395 L 800 370 Z" fill="url(#hull-dark)" />
      <!-- Lower Thruster Cap -->
      <path d="M 790 470 L 850 495 L 835 520 L 775 495 Z" fill="url(#hull-dark)" />
      <!-- Central Core Block -->
      <path d="M 780 360 L 865 390 L 845 480 L 760 450 Z" fill="url(#hull-shadow)" />
      
      <!-- Glowing engine cooling vents (bright orange vertical slashes) -->
      <rect x="800" y="390" width="6" height="45" rx="2.5" fill="#f97316" filter="url(#glow-light)"/>
      <rect x="815" y="400" width="6" height="45" rx="2.5" fill="#f97316" filter="url(#glow-light)"/>
      <rect x="830" y="410" width="6" height="45" rx="2.5" fill="#f97316" filter="url(#glow-light)"/>
    </g>


    <!-- ========================================================= -->
    <!-- 4. GOTHIC COMMAND BRIDGE & SPIRES (The Imperial Castle Look) -->
    <!-- ========================================================= -->
    <!-- Rising from the top-middle/rear of the ship -->
    <g stroke="#090d16" stroke-width="1.5">
      <!-- Tower Base Deck -->
      <path d="M 640 375 L 750 340 L 780 380 L 660 420 Z" fill="url(#hull-dark)" />

      <!-- SPIRE 1 (Far Left / Smallest) -->
      <path d="M 650 380 L 650 280 L 662 380 Z" fill="url(#hull-shadow)" />
      <line x1="650" y1="280" x2="650" y2="250" stroke="#475569" stroke-width="1" />
      <circle cx="650" cy="250" r="2.5" fill="#ef4444" filter="url(#glow-light)"/>

      <!-- SPIRE 2 (Mid-Left / Medium Tall) -->
      <path d="M 680 365 L 680 230 L 695 365 Z" fill="url(#hull-mid)" />
      <line x1="680" y1="230" x2="680" y2="190" stroke="#64748b" stroke-width="1.2" />
      <circle cx="680" cy="190" r="3" fill="#ff781e" filter="url(#glow-light)"/>
      <polygon points="675,280 685,280 680,265" fill="#ef4444" /> <!-- Tiny triangular spire stabilizer -->

      <!-- SPIRE 3 (Main Gothic Cathedral Tower / Tallest) -->
      <!-- Thick fortress-like tower with a spiky, buttressed top -->
      <path d="M 710 350 L 710 180 L 732 180 L 732 350 Z" fill="url(#hull-light)" />
      <!-- Tower crown spikes -->
      <path d="M 710 180 L 702 150 L 715 180 L 721 130 L 727 180 L 740 150 L 732 180 Z" fill="url(#hull-dark)" />
      <circle cx="721" cy="130" r="3.5" fill="#ffffff" filter="url(#glow-heavy)"/>
      <circle cx="702" cy="150" r="2" fill="#ef4444" />
      <circle cx="740" cy="150" r="2" fill="#ef4444" />
      <!-- Tactical command visor window on Spire 3 (horizontal glowing orange slot) -->
      <rect x="714" y="210" width="14" height="6" rx="1" fill="#ea580c" filter="url(#glow-light)"/>
      <rect x="716" y="212" width="10" height="2" fill="#ffffff" opacity="0.8"/>

      <!-- SPIRE 4 (Right Wing / Spiked) -->
      <path d="M 755 340 L 755 240 L 768 340 Z" fill="url(#hull-shadow)" />
      <line x1="755" y1="240" x2="755" y2="210" stroke="#475569" stroke-width="1" />
      <circle cx="755" cy="210" r="2.5" fill="#ff781e" filter="url(#glow-light)"/>

      <!-- SPIRE 5 (Far Right Spire) -->
      <path d="M 785 350 L 785 270 L 795 350 Z" fill="url(#hull-shadow)" />
      <circle cx="785" cy="270" r="2" fill="#ef4444"/>
    </g>


    <!-- ========================================================= -->
    <!-- 5. MIDSHIP FORTRESS WALLS & ARMOR PLATES -->
    <!-- ========================================================= -->
    <!-- Huge overlapping plates with distinct geometric angles -->
    <g stroke="#090d16" stroke-width="2">
      <!-- Upper Deck Midship Plate -->
      <path d="M 530 460 L 680 410 L 720 465 L 560 520 Z" fill="url(#hull-mid)" />
      
      <!-- Main Central Belt Armor (Long plate running diagonally) -->
      <path d="M 400 520 L 640 440 L 680 495 L 430 580 Z" fill="url(#hull-light)" />
      <!-- Secondary overlap shadow plate -->
      <path d="M 430 580 L 680 495 L 700 535 L 450 615 Z" fill="url(#hull-dark)" />

      <!-- Deep structural grooves between armor plates -->
      <path d="M 480 500 L 480 595" fill="none" stroke="#020617" stroke-width="4.5" />
      <path d="M 560 470 L 560 565" fill="none" stroke="#020617" stroke-width="4.5" />
      <path d="M 640 445 L 640 535" fill="none" stroke="#020617" stroke-width="4.5" />

      <!-- Glowing orange power lines running horizontally along the trenches -->
      <path d="M 410 525 L 625 450" fill="none" stroke="#f97316" stroke-width="2.5" filter="url(#glow-light)" />
      <path d="M 440 585 L 670 505" fill="none" stroke="#ea580c" stroke-width="2.5" filter="url(#glow-light)" />
      
      <!-- Rows of tiny illuminated square window ports (yellow/orange crew lights) -->
      <g fill="#fed7aa" filter="url(#glow-light)" opacity="0.9">
        <rect x="500" y="530" width="5" height="5" rx="1" fill="#f97316"/>
        <rect x="512" y="526" width="5" height="5" rx="1" fill="#f97316"/>
        <rect x="524" y="522" width="5" height="5" rx="1" fill="#f97316"/>
        
        <rect x="580" y="500" width="5" height="5" rx="1" fill="#ffedd5"/>
        <rect x="592" y="496" width="5" height="5" rx="1" fill="#ffedd5"/>
        <rect x="604" y="492" width="5" height="5" rx="1" fill="#f97316"/>
        <rect x="616" y="488" width="5" height="5" rx="1" fill="#f97316"/>

        <rect x="465" y="560" width="5" height="5" rx="1" fill="#f97316"/>
        <rect x="520" y="570" width="8" height="4" rx="1" fill="#ff781e"/>
        <rect x="600" y="540" width="5" height="5" rx="1" fill="#ffedd5"/>
      </g>
    </g>


    <!-- ========================================================= -->
    <!-- 6. DORSAL DEFENSIVE BATTERIES (Turret Guns along top spine) -->
    <!-- ========================================================= -->
    <!-- Gun Turret 1 (Near command bridge) -->
    <g transform="translate(600, 435) rotate(-15)">
      <polygon points="-15,5 15,5 10,-8 -10,-8" fill="#1e293b" stroke="#090d16" stroke-width="1.5" />
      <line x1="5" y1="-4" x2="35" y2="-12" stroke="#475569" stroke-width="3" />
      <line x1="-2" y1="-4" x2="28" y2="-12" stroke="#475569" stroke-width="3" />
      <circle cx="35" cy="-12" r="1.5" fill="#ef4444" filter="url(#glow-light)"/>
      <circle cx="28" cy="-12" r="1.5" fill="#ef4444" filter="url(#glow-light)"/>
    </g>

    <!-- Gun Turret 2 (Midship top) -->
    <g transform="translate(500, 470) rotate(-15)">
      <polygon points="-12,4 12,4 8,-6 -8,-6" fill="#1e293b" stroke="#090d16" stroke-width="1.5" />
      <line x1="3" y1="-3" x2="30" y2="-10" stroke="#475569" stroke-width="2.5" />
      <line x1="-3" y1="-3" x2="24" y2="-10" stroke="#475569" stroke-width="2.5" />
      <circle cx="30" cy="-10" r="1.2" fill="#ef4444"/>
    </g>


    <!-- ========================================================= -->
    <!-- 7. FORESHIP NOSE & COLOSSAL DISRUPTER LASER CANNON -->
    <!-- ========================================================= -->
    <!-- Segmented heavy gun casing at the nose -->
    <g stroke="#090d16" stroke-width="2">
      <!-- Front nose cowl upper plate -->
      <path d="M 280 500 L 400 475 L 430 525 L 300 555 Z" fill="url(#hull-light)" />
      <!-- Lower nose cowl plate -->
      <path d="M 300 555 L 430 525 L 450 615 L 320 630 Z" fill="url(#hull-dark)" />
      
      <!-- Primary Heavy Barrel Shroud (Chunky cylinder at the tip) -->
      <path d="M 240 535 L 310 515 L 330 585 L 260 610 Z" fill="url(#hull-shadow)" />
      
      <!-- Cannon Muzzle Ring (Brilliant white-hot circle facing bottom-left) -->
      <ellipse cx="240" cy="565" rx="15" ry="32" fill="#1e293b" stroke="#334155" stroke-width="3" transform="rotate(15, 240, 565)" />
      
      <!-- Embedded power coupling rings on muzzle -->
      <ellipse cx="255" cy="560" rx="6" ry="24" fill="none" stroke="#ff781e" stroke-width="2.5" filter="url(#glow-light)" transform="rotate(15, 255, 560)" />
      <ellipse cx="275" cy="552" rx="6" ry="22" fill="none" stroke="#ea580c" stroke-width="2" filter="url(#glow-light)" transform="rotate(15, 275, 552)" />
    </g>


    <!-- ========================================================= -->
    <!-- 8. COGNITIVE LASER FIRED DETONATION (Epic Blasting Beam)  -->
    <!-- ========================================================= -->
    <!-- Laser fired from the barrel at (230, 570) heading towards bottom-left edge (0, 660) -->
    <g transform="translate(0, 0)">
      <!-- Massive Expanding Shockwave Muzzle Rings -->
      <ellipse cx="215" cy="580" rx="15" ry="50" fill="none" stroke="#ef4444" stroke-width="4.5" filter="url(#glow-heavy)" transform="rotate(22, 215, 580)" opacity="0.9" />
      <ellipse cx="190" cy="590" rx="10" ry="75" fill="none" stroke="#ff781e" stroke-width="3" filter="url(#glow-heavy)" transform="rotate(22, 190, 590)" opacity="0.7" />
      <ellipse cx="150" cy="610" rx="8" ry="105" fill="none" stroke="#b91c1c" stroke-width="2" filter="url(#glow-light)" transform="rotate(22, 150, 610)" opacity="0.5" />

      <!-- High-Intensity Detonating Muzzle Flash Sphere -->
      <circle cx="225" cy="575" r="45" fill="url(#laser-glow)" filter="url(#glow-heavy)" />
      <circle cx="225" cy="575" r="20" fill="#ffffff" filter="url(#glow-light)" />

      <!-- The Core Devastating Laser Beam Blast -->
      <!-- Wide outer energetic red bloom -->
      <polygon points="225,550 0,580 0,770 225,600" fill="url(#laser-beam)" opacity="0.35" filter="blur(15px)" />
      <!-- Intense middle orange/red beam -->
      <polygon points="225,560 0,600 0,720 225,590" fill="url(#laser-beam)" opacity="0.75" filter="blur(4px)" />
      <!-- Ultra-white core death beam -->
      <line x1="225" y1="575" x2="-50" y2="670" stroke="#ffffff" stroke-width="16" stroke-linecap="round" filter="url(#glow-heavy)" />
      <line x1="225" y1="575" x2="-50" y2="670" stroke="#fecaca" stroke-width="8" stroke-linecap="round" />
      
      <!-- Sparks & kinetic particle flare-ups flying away -->
      <circle cx="160" cy="510" r="4" fill="#ffffff" filter="url(#glow-light)" />
      <line x1="205" y1="545" x2="160" y2="510" stroke="#fca5a5" stroke-width="2" />
      
      <circle cx="180" cy="670" r="5" fill="#ffffff" filter="url(#glow-light)" />
      <line x1="210" y1="620" x2="180" y2="670" stroke="#fca5a5" stroke-width="2.5" />

      <circle cx="120" cy="550" r="3" fill="#ff781e" filter="url(#glow-light)" />
      <circle cx="90" cy="620" r="3" fill="#ffffff" />
      <circle cx="70" cy="590" r="2" fill="#ef4444" />
      <circle cx="50" cy="690" r="3.5" fill="#ff781e" filter="url(#glow-light)" />
    </g>

  </g>


  <!-- ========================================================= -->
  <!-- 9. FOREGROUND ASTEROIDS (Shaded by engines and lasers)     -->
  <!-- ========================================================= -->
  <!-- Giant Rocky Asteroid in bottom-right corner -->
  <g transform="translate(1020, 620)" opacity="0.95">
    <!-- Asteroid base geometry -->
    <polygon points="
      -30,-60 
      40,-80 
      120,-30 
      140,50 
      80,120 
      -20,130 
      -80,70 
      -90,-10 Z" 
      fill="#111827" 
      stroke="#030712" 
      stroke-width="3" 
    />
    <!-- Textured craters & surface cuts -->
    <path d="M -40,-20 Q -20,-40 10,-30 M 30,10 Q 60,30 80,0 M -50,40 Q -10,30 -20,80" fill="none" stroke="#030712" stroke-width="2.5" />
    <path d="M 50,70 Q 90,80 110,40" fill="none" stroke="#030712" stroke-width="2.5" />
    
    <!-- ENGINE LIGHTS REFLECTION (Bright orange/gold rim on the left-facing side of the asteroid) -->
    <path d="M -30,-60 L -90,-10 L -80,70 L -20,130" fill="none" stroke="#f97316" stroke-width="5" stroke-linecap="round" opacity="0.75" filter="url(#glow-light)" />
    <path d="M -30,-60 L -90,-10 L -80,70 L -20,130" fill="none" stroke="#ffedd5" stroke-width="2" stroke-linecap="round" opacity="0.9" />
  </g>

  <!-- Smaller floating asteroid in top-left (with slight red highlight from the laser) -->
  <g transform="translate(110, 290) rotate(45)" opacity="0.9">
    <polygon points="-20,-30 15,-40 40,-10 30,30 -10,40 -35,10" fill="#1f2937" stroke="#090d16" stroke-width="2" />
    <path d="M -10,-10 Q 10,-20 20,0" fill="none" stroke="#090d16" stroke-width="1.5" />
    <!-- Laser Reflection (red rim highlight on the right/bottom facing edge) -->
    <path d="M 40,-10 L 30,30 L -10,40" fill="none" stroke="#ef4444" stroke-width="3" stroke-linecap="round" opacity="0.8" filter="url(#glow-light)" />
    <path d="M 40,-10 L 30,30 L -10,40" fill="none" stroke="#fee2e2" stroke-width="1" stroke-linecap="round" />
  </g>

  <!-- Distant tiny floating rocks around the ship -->
  <g opacity="0.75">
    <!-- Rock near bridge -->
    <polygon points="560,310 572,305 578,312 568,320" fill="#111827" />
    <!-- Rock below mid-hull -->
    <polygon points="460,670 475,665 480,675 468,682" fill="#111827" />
    <!-- Rock near engines -->
    <polygon points="930,520 942,510 948,525 935,532" fill="#1e293b" />
  </g>

</svg>
